<svg xmlns="http://www.w3.org/2000/svg" xmlns:xlink="http://www.w3.org/1999/xlink" width="81" height="81.5" viewBox="0 0 81 81.5">
  <defs>
    <filter id="長方形_1752" x="0" y="0" width="81" height="81.5" filterUnits="userSpaceOnUse">
      <feOffset dy="2" input="SourceAlpha"/>
      <feGaussianBlur stdDeviation="0.5" result="blur"/>
      <feFlood flood-opacity="0.051"/>
      <feComposite operator="in" in2="blur"/>
      <feComposite in="SourceGraphic"/>
    </filter>
  </defs>
  <g id="Decorator" transform="translate(21.55 21.739)">
    <g id="グループ_255" data-name="グループ 255">
      <g transform="matrix(1, 0, 0, 1, -21.55, -21.74)" filter="url(#長方形_1752)">
        <rect id="長方形_1752-2" data-name="長方形 1752" width="76" height="76" rx="4" transform="translate(2.5 1)" fill="#fff" stroke="#e3e3e4" stroke-width="2"/>
      </g>
      <g id="グループ_261" data-name="グループ 261" transform="translate(-15.05 24.261) rotate(-90)">
        <line id="線_86" data-name="線 86" fill="none" stroke="#999898" stroke-linecap="round" stroke-linejoin="round" stroke-width="2"/>
        <line id="線_87" data-name="線 87" transform="translate(7)" fill="none" stroke="#999898" stroke-linecap="round" stroke-linejoin="round" stroke-width="2"/>
        <line id="線_88" data-name="線 88" transform="translate(14)" fill="none" stroke="#999898" stroke-linecap="round" stroke-linejoin="round" stroke-width="2"/>
        <line id="線_89" data-name="線 89" transform="translate(0 4.2)" fill="none" stroke="#999898" stroke-linecap="round" stroke-linejoin="round" stroke-width="2"/>
        <line id="線_90" data-name="線 90" transform="translate(7 4.2)" fill="none" stroke="#999898" stroke-linecap="round" stroke-linejoin="round" stroke-width="2"/>
        <line id="線_91" data-name="線 91" transform="translate(14 4.2)" fill="none" stroke="#999898" stroke-linecap="round" stroke-linejoin="round" stroke-width="2"/>
      </g>
    </g>
    <g id="グループ_256" data-name="グループ 256" transform="translate(7 7)">
      <g id="base" transform="translate(-11.05 -12.739)" fill="#fff" stroke-linecap="round">
        <path d="M 42.59259033203125 47 L 3.407409906387329 47 C 0.9771599769592285 47 -1 45.0228385925293 -1 42.59259033203125 L -1 3.407409906387329 C -1 0.9771599769592285 0.9771599769592285 -1 3.407409906387329 -1 L 42.59259033203125 -1 C 45.0228385925293 -1 47 0.9771599769592285 47 3.407409906387329 L 47 42.59259033203125 C 47 45.0228385925293 45.0228385925293 47 42.59259033203125 47 Z" stroke="none"/>
        <path d="M 3.40740966796875 0 C 1.525550842285156 0 0 1.525550842285156 0 3.40740966796875 L 0 42.59259033203125 C 0 44.47446060180664 1.525550842285156 46 3.40740966796875 46 L 42.59259033203125 46 C 44.47446060180664 46 46 44.47446060180664 46 42.59259033203125 L 46 3.40740966796875 C 46 1.525550842285156 44.47446060180664 0 42.59259033203125 0 L 3.40740966796875 0 M 3.40740966796875 -2 L 42.59259033203125 -2 C 45.57424926757812 -2 48 0.425750732421875 48 3.40740966796875 L 48 42.59259033203125 C 48 45.57424926757812 45.57424926757812 48 42.59259033203125 48 L 3.40740966796875 48 C 0.425750732421875 48 -2 45.57424926757812 -2 42.59259033203125 L -2 3.40740966796875 C -2 0.425750732421875 0.425750732421875 -2 3.40740966796875 -2 Z" stroke="none" fill="#4d997d"/>
      </g>
      <path id="多角形_98" data-name="多角形 98" d="M16.867,0,33.733,9.967,16.867,19.933,0,9.967Z" transform="translate(-4.917 0.367)" fill="#4d997d"/>
    </g>
  </g>
</svg>
