<svg xmlns="http://www.w3.org/2000/svg" width="175.242" height="24.249" viewBox="0 0 175.242 24.249">
  <g id="logo_White" transform="translate(0 4.647)">
    <text id="KARA" transform="translate(23.768 14.602)" fill="#fff" font-size="20" font-family="HelveticaNeue-CondensedBlack, Helvetica Neue" font-weight="800"><tspan x="0" y="0">KARA</tspan></text>
    <text id="KURI" transform="translate(73.073 14.602)" fill="#fff" font-size="20" font-family="HelveticaNeue-CondensedBlack, Helvetica Neue" font-weight="800"><tspan x="0" y="0">KURI</tspan></text>
    <path id="パス_140" data-name="パス 140" d="M.007,12.419c0,.1-.007.2-.007.308s0,.206.007.308c.2.072.429.143.656.211a8.723,8.723,0,0,1,.838.283l.045.019.005.049c.021.2.053.419.1.657l.009.048-.037.031a8.533,8.533,0,0,1-.747.524c-.191.125-.388.253-.551.373.047.182.1.372.172.579.207.013.448.015.682.017a8.736,8.736,0,0,1,.892.036l.049.006.019.045c.082.2.176.4.276.6l.022.044-.027.041a8.614,8.614,0,0,1-.564.709c-.149.175-.3.356-.426.518.1.17.212.34.328.508.2-.046.431-.111.654-.175a8.737,8.737,0,0,1,.872-.218l.049-.008.03.038c.137.17.283.339.435.5l.034.036-.015.047a8.488,8.488,0,0,1-.341.835c-.094.211-.191.428-.265.62.15.138.3.271.457.4.179-.1.38-.226.575-.349a8.619,8.619,0,0,1,.779-.456l.044-.021.04.028c.18.126.368.248.558.36L5.692,20v.049a8.588,8.588,0,0,1-.092.892c-.031.231-.064.468-.08.674.189.094.369.177.549.252.143-.145.3-.323.45-.495a8.628,8.628,0,0,1,.623-.662l.037-.033.046.016c.222.075.43.137.636.188l.048.012.013.048a8.606,8.606,0,0,1,.162.875c.035.231.072.47.115.674.213.037.41.066.6.088.094-.178.193-.39.289-.6a8.526,8.526,0,0,1,.414-.816l.025-.042.049,0c.222.009.448.009.67,0l.049,0,.026.042a8.611,8.611,0,0,1,.415.817c.1.205.194.417.289.6.189-.022.385-.05.6-.088.043-.2.079-.441.114-.673a8.792,8.792,0,0,1,.163-.876l.013-.048.048-.012c.2-.051.412-.113.636-.188l.046-.016.036.033a8.551,8.551,0,0,1,.622.661c.152.172.309.35.451.5.181-.076.361-.159.549-.252-.017-.206-.049-.444-.08-.675a8.741,8.741,0,0,1-.093-.892V20l.042-.025c.187-.111.375-.232.558-.359l.04-.028.044.021a8.7,8.7,0,0,1,.78.456c.195.123.4.25.575.349.154-.126.307-.259.457-.4-.073-.191-.17-.409-.265-.619a8.671,8.671,0,0,1-.34-.835l-.015-.047.034-.036c.152-.162.3-.331.434-.5l.031-.038.049.008a8.676,8.676,0,0,1,.873.219c.223.064.453.129.653.175.116-.169.226-.339.328-.508-.124-.163-.277-.343-.426-.518a8.63,8.63,0,0,1-.565-.709l-.027-.041.022-.044c.1-.2.2-.4.277-.6l.019-.045.048-.006a8.751,8.751,0,0,1,.893-.036c.233,0,.474,0,.681-.017.068-.207.124-.4.172-.579-.164-.12-.361-.249-.552-.373a8.447,8.447,0,0,1-.746-.523l-.037-.031.008-.048c.044-.238.075-.453.1-.657l0-.049.046-.019a8.663,8.663,0,0,1,.837-.283c.226-.069.459-.139.656-.211,0-.1.007-.2.007-.308s0-.2-.007-.308c-.2-.072-.429-.142-.655-.211a8.716,8.716,0,0,1-.838-.283l-.046-.02,0-.049c-.021-.2-.053-.419-.1-.657l-.008-.048.037-.031a8.451,8.451,0,0,1,.746-.523c.192-.125.389-.254.553-.374-.048-.183-.1-.374-.172-.579-.207-.013-.448-.015-.681-.017a8.677,8.677,0,0,1-.893-.036l-.048-.006-.019-.045c-.082-.2-.175-.4-.277-.6l-.022-.044.027-.041a8.6,8.6,0,0,1,.563-.708c.149-.175.3-.356.427-.519-.1-.169-.212-.339-.328-.508-.2.046-.43.111-.653.175a8.509,8.509,0,0,1-.873.219l-.049.008-.031-.038c-.136-.17-.282-.339-.435-.5l-.033-.036L16.02,6.9a8.6,8.6,0,0,1,.34-.835c.095-.211.191-.428.265-.62-.15-.138-.3-.271-.457-.4-.179.1-.38.226-.575.349a8.574,8.574,0,0,1-.78.456l-.044.021-.041-.028c-.181-.127-.369-.248-.558-.359l-.042-.025V5.409a8.64,8.64,0,0,1,.092-.892c.031-.231.064-.469.08-.675-.19-.094-.37-.177-.549-.252-.142.145-.3.323-.45.495a8.416,8.416,0,0,1-.623.662l-.036.033L12.6,4.764c-.222-.075-.43-.137-.637-.189l-.048-.012L11.9,4.516a8.705,8.705,0,0,1-.162-.875c-.036-.232-.072-.471-.115-.674-.213-.037-.411-.066-.6-.088-.095.178-.193.389-.289.595a8.652,8.652,0,0,1-.415.817l-.026.042-.049,0c-.223-.009-.448-.009-.671,0l-.049,0L9.5,4.291a8.567,8.567,0,0,1-.414-.817c-.1-.206-.195-.417-.289-.6-.189.022-.386.05-.6.088-.043.2-.08.443-.115.674a8.765,8.765,0,0,1-.162.875l-.013.048-.048.012c-.2.051-.413.113-.637.189l-.046.016-.037-.033a8.5,8.5,0,0,1-.623-.661c-.152-.172-.308-.349-.451-.495-.179.076-.363.16-.548.252.017.206.049.444.08.675a8.579,8.579,0,0,1,.092.892v.049l-.043.025c-.187.111-.375.232-.558.36l-.04.028L5.008,5.85a8.611,8.611,0,0,1-.779-.456c-.2-.123-.4-.25-.576-.349-.155.127-.309.26-.457.4.073.192.17.409.265.62A8.723,8.723,0,0,1,3.8,6.9l.015.047-.034.036c-.15.16-.3.328-.435.5l-.031.038L3.269,7.51A8.586,8.586,0,0,1,2.4,7.291c-.223-.064-.453-.129-.654-.175-.116.17-.227.34-.328.508.124.163.278.344.427.519a8.546,8.546,0,0,1,.564.709l.027.041-.022.044c-.1.2-.194.4-.276.6l-.019.046-.049.006a8.659,8.659,0,0,1-.892.036c-.234,0-.475,0-.681.017-.068.206-.124.4-.172.579.163.119.36.248.55.372a8.594,8.594,0,0,1,.748.525l.038.031-.009.048c-.044.238-.075.453-.1.657l-.005.049-.045.02a8.73,8.73,0,0,1-.839.283c-.225.069-.458.139-.654.211m10.234-2.384.026.113-.116-.01c-.088-.008-.167-.012-.241-.012a2.587,2.587,0,0,0-.888.159l-.049.018-.038-.036a9.358,9.358,0,0,0-4.26-2.314L4.515,7.93l.111-.119a7.27,7.27,0,0,1,2.613-1.79l.035-.014.033.016a6.215,6.215,0,0,1,2.934,4.012m-1.219,1.8a1.258,1.258,0,1,1-.369.89,1.249,1.249,0,0,1,.369-.89m3.027-.782-.061.1-.074-.089a2.625,2.625,0,0,0-.9-.694l-.047-.022V10.3A9.366,9.366,0,0,0,9.586,5.65l-.1-.129.162-.006c.086,0,.174-.007.261-.007a7.176,7.176,0,0,1,2.852.586l.034.015.012.035a6.211,6.211,0,0,1-.761,4.912m4.583-.967-.016.033A6.218,6.218,0,0,1,12.6,13.057l-.112.026.011-.115c.007-.079.012-.16.012-.241a2.59,2.59,0,0,0-.159-.888l-.017-.049.036-.037a9.355,9.355,0,0,0,2.314-4.26l.022-.161.119.111a7.27,7.27,0,0,1,1.791,2.613Zm-1.6,5.756a6.669,6.669,0,0,1-3.454-.98l-.1-.062.089-.074a2.618,2.618,0,0,0,.694-.9l.022-.047h.052A9.364,9.364,0,0,0,16.989,12.4l.129-.1.007.195c0,.076.005.152.005.229a7.167,7.167,0,0,1-.586,2.852l-.014.034-.035.012a4.488,4.488,0,0,1-1.46.22M9.58,15.419l-.026-.113.115.01A2.623,2.623,0,0,0,10.8,15.17l.048-.018.038.036A9.358,9.358,0,0,0,15.146,17.5l.161.022-.111.119a7.27,7.27,0,0,1-2.613,1.79l-.034.014-.033-.016A6.215,6.215,0,0,1,9.58,15.419M7.773,14.4l.062-.1.074.089a2.632,2.632,0,0,0,.9.694l.047.022,0,.052A9.36,9.36,0,0,0,10.235,19.8l.1.129-.184.007c-.08,0-.159.006-.239.006a7.171,7.171,0,0,1-2.852-.586l-.034-.015-.013-.035A6.215,6.215,0,0,1,7.773,14.4m-4.582.967.016-.033A6.213,6.213,0,0,1,7.218,12.4l.113-.026-.01.115c-.008.091-.012.168-.012.241a2.6,2.6,0,0,0,.159.888l.018.049-.036.038a9.356,9.356,0,0,0-2.314,4.26l-.022.161-.119-.111A7.278,7.278,0,0,1,3.2,15.4Zm-.5-2.638a7.183,7.183,0,0,1,.586-2.853l.015-.034.035-.012a4.489,4.489,0,0,1,1.459-.219,6.666,6.666,0,0,1,3.454.98l.1.062-.089.074a2.626,2.626,0,0,0-.694.9l-.022.047-.051,0a9.36,9.36,0,0,0-4.648,1.376l-.129.1L2.7,12.956c0-.076-.005-.152-.005-.229" transform="translate(0 -4.482)" fill="#fff"/>
    <text id="EDITOR" transform="translate(116.242 14.353)" fill="#fff" font-size="20" font-family="HelveticaNeue-CondensedBlack, Helvetica Neue" font-weight="800"><tspan x="0" y="0">EDITOR</tspan></text>
  </g>
</svg>
