<svg xmlns="http://www.w3.org/2000/svg" width="32" height="32" viewBox="0 0 32 32">
  <g id="root_s" transform="translate(13.05 14.739)">
    <g id="base" transform="translate(-11.05 -12.739)" fill="#fff" stroke-linecap="round">
      <path d="M 25.92593002319336 29 L 2.074069976806641 29 C 0.3790200054645538 29 -1 27.62097930908203 -1 25.92593002319336 L -1 2.074069976806641 C -1 0.3790200054645538 0.3790200054645538 -1 2.074069976806641 -1 L 25.92593002319336 -1 C 27.62097930908203 -1 29 0.3790200054645538 29 2.074069976806641 L 29 25.92593002319336 C 29 27.62097930908203 27.62097930908203 29 25.92593002319336 29 Z" stroke="none"/>
      <path d="M 2.074069976806641 0 C 0.9285907745361328 0 0 0.9285907745361328 0 2.074069976806641 L 0 25.92593002319336 C 0 27.0713996887207 0.9285907745361328 28 2.074069976806641 28 L 25.92593002319336 28 C 27.0713996887207 28 28 27.0713996887207 28 25.92593002319336 L 28 2.074069976806641 C 28 0.9285907745361328 27.0713996887207 0 25.92593002319336 0 L 2.074069976806641 0 M 2.074069976806641 -2 L 25.92593002319336 -2 C 28.1723804473877 -2 30 -0.1723804473876953 30 2.074069976806641 L 30 25.92593002319336 C 30 28.1723804473877 28.1723804473877 30 25.92593002319336 30 L 2.074069976806641 30 C -0.1723804473876953 30 -2 28.1723804473877 -2 25.92593002319336 L -2 2.074069976806641 C -2 -0.1723804473876953 -0.1723804473876953 -2 2.074069976806641 -2 Z" stroke="none" fill="#413d39"/>
    </g>
  </g>
</svg>
