<svg xmlns="http://www.w3.org/2000/svg" xmlns:xlink="http://www.w3.org/1999/xlink" width="81" height="81.5" viewBox="0 0 81 81.5">
  <defs>
    <filter id="長方形_1752" x="0" y="0" width="81" height="81.5" filterUnits="userSpaceOnUse">
      <feOffset dy="2" input="SourceAlpha"/>
      <feGaussianBlur stdDeviation="0.5" result="blur"/>
      <feFlood flood-opacity="0.051"/>
      <feComposite operator="in" in2="blur"/>
      <feComposite in="SourceGraphic"/>
    </filter>
  </defs>
  <g id="Selector" transform="translate(21.55 21.739)">
    <g id="グループ_252" data-name="グループ 252" transform="translate(-20.05 -21.739)">
      <g transform="matrix(1, 0, 0, 1, -1.5, 0)" filter="url(#長方形_1752)">
        <rect id="長方形_1752-2" data-name="長方形 1752" width="76" height="76" rx="4" transform="translate(2.5 1)" fill="#ededed" stroke="#e3e3e4" stroke-width="2"/>
      </g>
      <g id="グループ_259" data-name="グループ 259" transform="translate(5 46) rotate(-90)">
        <line id="線_86" data-name="線 86" fill="none" stroke="#999898" stroke-linecap="round" stroke-linejoin="round" stroke-width="2"/>
        <line id="線_87" data-name="線 87" transform="translate(7)" fill="none" stroke="#999898" stroke-linecap="round" stroke-linejoin="round" stroke-width="2"/>
        <line id="線_88" data-name="線 88" transform="translate(14)" fill="none" stroke="#999898" stroke-linecap="round" stroke-linejoin="round" stroke-width="2"/>
        <line id="線_89" data-name="線 89" transform="translate(0 4.2)" fill="none" stroke="#999898" stroke-linecap="round" stroke-linejoin="round" stroke-width="2"/>
        <line id="線_90" data-name="線 90" transform="translate(7 4.2)" fill="none" stroke="#999898" stroke-linecap="round" stroke-linejoin="round" stroke-width="2"/>
        <line id="線_91" data-name="線 91" transform="translate(14 4.2)" fill="none" stroke="#999898" stroke-linecap="round" stroke-linejoin="round" stroke-width="2"/>
      </g>
    </g>
    <g id="グループ_253" data-name="グループ 253" transform="translate(-4.05 -5.739)">
      <g id="base" transform="translate(0 0)" fill="#ededed" stroke-linecap="round">
        <path d="M 42.59259033203125 47 L 3.407409906387329 47 C 0.9771599769592285 47 -1 45.0228385925293 -1 42.59259033203125 L -1 3.407409906387329 C -1 0.9771599769592285 0.9771599769592285 -1 3.407409906387329 -1 L 42.59259033203125 -1 C 45.0228385925293 -1 47 0.9771599769592285 47 3.407409906387329 L 47 42.59259033203125 C 47 45.0228385925293 45.0228385925293 47 42.59259033203125 47 Z" stroke="none"/>
        <path d="M 3.40740966796875 0 C 1.525550842285156 0 0 1.525550842285156 0 3.40740966796875 L 0 42.59259033203125 C 0 44.47446060180664 1.525550842285156 46 3.40740966796875 46 L 42.59259033203125 46 C 44.47446060180664 46 46 44.47446060180664 46 42.59259033203125 L 46 3.40740966796875 C 46 1.525550842285156 44.47446060180664 0 42.59259033203125 0 L 3.40740966796875 0 M 3.40740966796875 -2 L 42.59259033203125 -2 C 45.57424926757812 -2 48 0.425750732421875 48 3.40740966796875 L 48 42.59259033203125 C 48 45.57424926757812 45.57424926757812 48 42.59259033203125 48 L 3.40740966796875 48 C 0.425750732421875 48 -2 45.57424926757812 -2 42.59259033203125 L -2 3.40740966796875 C -2 0.425750732421875 0.425750732421875 -2 3.40740966796875 -2 Z" stroke="none" fill="#b7b7b7"/>
      </g>
      <g id="グループ_272" data-name="グループ 272" transform="translate(7 7)">
        <g id="グループ_271" data-name="グループ 271" transform="translate(0 1.002)">
          <path id="パス_149" data-name="パス 149" d="M2.5,10.919h-3V-.5H10.919v3H2.5Z" transform="translate(-1 -2)" fill="#b7b7b7"/>
          <path id="パス_150" data-name="パス 150" d="M44.419,10.919h-3V2.5H33v-3H44.419Z" transform="translate(-10.919 -2)" fill="#b7b7b7"/>
          <path id="パス_151" data-name="パス 151" d="M44.419,44.419H33v-3h8.419V33h3Z" transform="translate(-10.919 -11.919)" fill="#b7b7b7"/>
          <path id="パス_152" data-name="パス 152" d="M10.919,44.419H-.5V33h3v8.419h8.419Z" transform="translate(-1 -11.919)" fill="#b7b7b7"/>
        </g>
        <rect id="長方形_1813" data-name="長方形 1813" width="18" height="18" transform="translate(7 7.001)" fill="#b7b7b7"/>
      </g>
    </g>
  </g>
</svg>
