<svg xmlns="http://www.w3.org/2000/svg" width="32" height="32" viewBox="0 0 32 32">
  <g id="sequence_s" transform="translate(13.05 14.739)">
    <g id="base" transform="translate(-11.05 -12.739)" fill="#fff" stroke-linecap="round">
      <path d="M 25.9259204864502 29 L 2.074069976806641 29 C 0.3790200054645538 29 -1 27.62096977233887 -1 25.9259204864502 L -1 2.074069976806641 C -1 0.3790200054645538 0.3790200054645538 -1 2.074069976806641 -1 L 25.9259204864502 -1 C 27.62096977233887 -1 29 0.3790200054645538 29 2.074069976806641 L 29 25.9259204864502 C 29 27.62096977233887 27.62096977233887 29 25.9259204864502 29 Z" stroke="none"/>
      <path d="M 2.074069976806641 0 C 0.9285907745361328 0 0 0.9285907745361328 0 2.074069976806641 L 0 25.9259204864502 C 0 27.07140922546387 0.9285907745361328 28 2.074069976806641 28 L 25.9259204864502 28 C 27.07140922546387 28 28 27.07140922546387 28 25.9259204864502 L 28 2.074069976806641 C 28 0.9285907745361328 27.07140922546387 0 25.9259204864502 0 L 2.074069976806641 0 M 2.074069976806641 -2 L 25.9259204864502 -2 C 28.1723804473877 -2 30 -0.1723804473876953 30 2.074069976806641 L 30 25.9259204864502 C 30 28.1723804473877 28.1723804473877 30 25.9259204864502 30 L 2.074069976806641 30 C -0.1723804473876953 30 -2 28.1723804473877 -2 25.9259204864502 L -2 2.074069976806641 C -2 -0.1723804473876953 -0.1723804473876953 -2 2.074069976806641 -2 Z" stroke="none" fill="#b43f2c"/>
    </g>
    <path id="合体_1" data-name="合体 1" d="M13.5,10.22c.006-.009.008-1.145.009-2.639H.4a.4.4,0,0,1-.4-.4V3.512a.4.4,0,0,1,.4-.4H13.511c0-1.5,0-2.642-.006-2.637a.474.474,0,0,1,.731-.4L21.81,4.949a.474.474,0,0,1,0,.8l-7.574,4.872a.468.468,0,0,1-.255.077A.477.477,0,0,1,13.5,10.22Z" transform="translate(-7.861 -4.046)" fill="#b43f2c"/>
  </g>
</svg>
