<svg xmlns="http://www.w3.org/2000/svg" width="24" height="24" viewBox="0 0 24 24">
  <g id="skills_s" transform="translate(11.05 12.739)">
    <g id="base" transform="translate(-11.05 -12.739)" fill="#e1a23a" stroke-linecap="round">
      <path d="M 22.22221946716309 23.25 L 1.777780055999756 23.25 C 1.211060047149658 23.25 0.75 22.7889404296875 0.75 22.22221946716309 L 0.75 1.777780055999756 C 0.75 1.211060047149658 1.211060047149658 0.75 1.777780055999756 0.75 L 22.22221946716309 0.75 C 22.7889404296875 0.75 23.25 1.211060047149658 23.25 1.777780055999756 L 23.25 22.22221946716309 C 23.25 22.7889404296875 22.7889404296875 23.25 22.22221946716309 23.25 Z" stroke="none"/>
      <path d="M 1.777780532836914 1.5 C 1.624610900878906 1.5 1.5 1.624610900878906 1.5 1.777780532836914 L 1.5 22.22221946716309 C 1.5 22.37538909912109 1.624610900878906 22.5 1.777780532836914 22.5 L 22.22221946716309 22.5 C 22.37538909912109 22.5 22.5 22.37538909912109 22.5 22.22221946716309 L 22.5 1.777780532836914 C 22.5 1.624610900878906 22.37538909912109 1.5 22.22221946716309 1.5 L 1.777780532836914 1.5 M 1.777780532836914 0 L 22.22221946716309 0 C 23.20405960083008 0 24 0.7959403991699219 24 1.777780532836914 L 24 22.22221946716309 C 24 23.20405960083008 23.20405960083008 24 22.22221946716309 24 L 1.777780532836914 24 C 0.7959403991699219 24 0 23.20405960083008 0 22.22221946716309 L 0 1.777780532836914 C 0 0.7959403991699219 0.7959403991699219 0 1.777780532836914 0 Z" stroke="none" fill="#e1a23a"/>
    </g>
    <path id="パス_133" data-name="パス 133" d="M17.138.008l-7.1,1.514a.382.382,0,0,0-.23.6l.824.83a.281.281,0,0,0,.029.035l.8.8L7.4,7.82,2.473,2.686a.3.3,0,0,0-.421-.009L.092,4.556a.3.3,0,0,0-.009.421l5.086,5.3a.3.3,0,0,0,.068.108l1.026,1.032.75.782.014-.013.124.125a.3.3,0,0,0,.421,0l6.219-6.179.8.8.011.01.826.832a.382.382,0,0,0,.6-.225L17.591.465a.382.382,0,0,0-.453-.456" transform="translate(-7.71 -6.586)" fill="#fff"/>
  </g>
</svg>
