<svg xmlns="http://www.w3.org/2000/svg" width="32" height="32" viewBox="0 0 32 32">
  <g id="skills_s" transform="translate(13.05 14.739)">
    <g id="base" transform="translate(-11.05 -12.739)" fill="#fff" stroke-linecap="round">
      <path d="M 25.9259204864502 29 L 2.074069976806641 29 C 0.3790200054645538 29 -1 27.62096977233887 -1 25.9259204864502 L -1 2.074069976806641 C -1 0.3790200054645538 0.3790200054645538 -1 2.074069976806641 -1 L 25.9259204864502 -1 C 27.62096977233887 -1 29 0.3790200054645538 29 2.074069976806641 L 29 25.9259204864502 C 29 27.62096977233887 27.62096977233887 29 25.9259204864502 29 Z" stroke="none"/>
      <path d="M 2.074069976806641 0 C 0.9285907745361328 0 0 0.9285907745361328 0 2.074069976806641 L 0 25.9259204864502 C 0 27.0713996887207 0.9285907745361328 28 2.074069976806641 28 L 25.9259204864502 28 C 27.0713996887207 28 28 27.0713996887207 28 25.9259204864502 L 28 2.074069976806641 C 28 0.9285907745361328 27.0713996887207 0 25.9259204864502 0 L 2.074069976806641 0 M 2.074069976806641 -2 L 25.9259204864502 -2 C 28.1723804473877 -2 30 -0.1723804473876953 30 2.074069976806641 L 30 25.9259204864502 C 30 28.1723804473877 28.1723804473877 30 25.9259204864502 30 L 2.074069976806641 30 C -0.1723804473876953 30 -2 28.1723804473877 -2 25.9259204864502 L -2 2.074069976806641 C -2 -0.1723804473876953 -0.1723804473876953 -2 2.074069976806641 -2 Z" stroke="none" fill="#e1a23a"/>
    </g>
    <path id="パス_133" data-name="パス 133" d="M19.994.01,11.71,1.776a.446.446,0,0,0-.268.7l.961.969a.328.328,0,0,0,.034.04l.93.936L8.631,9.123,2.886,3.134a.348.348,0,0,0-.491-.01L.107,5.315a.348.348,0,0,0-.01.491L6.03,11.992a.345.345,0,0,0,.08.126l1.2,1.2.876.913L8.2,14.22l.144.145a.347.347,0,0,0,.491,0l7.255-7.209.93.936.013.011L18,9.076a.446.446,0,0,0,.7-.263L20.522.542A.446.446,0,0,0,19.994.01" transform="translate(-7.153 -5.56)" fill="#e1a23a"/>
  </g>
</svg>
