<svg xmlns="http://www.w3.org/2000/svg" width="18" height="18" viewBox="0 0 18 18">
  <g id="skills_ss" transform="translate(11.05 12.739)">
    <path id="base" d="M1.333,0H16.667A1.333,1.333,0,0,1,18,1.333V16.667A1.333,1.333,0,0,1,16.667,18H1.333A1.333,1.333,0,0,1,0,16.667V1.333A1.333,1.333,0,0,1,1.333,0Z" transform="translate(-11.05 -12.739)" fill="#fff"/>
    <path id="パス_133" data-name="パス 133" d="M12.853.006,7.528,1.141a.287.287,0,0,0-.172.448l.618.623a.211.211,0,0,0,.022.026l.6.6L5.548,5.865,1.855,2.014a.223.223,0,0,0-.316-.007L.069,3.417a.223.223,0,0,0-.007.316L3.876,7.709a.222.222,0,0,0,.051.081l.769.774.563.587.01-.01.093.093a.223.223,0,0,0,.316,0L10.343,4.6l.6.6.008.007.619.624a.287.287,0,0,0,.45-.169L13.193.348a.287.287,0,0,0-.34-.342" transform="translate(-8.545 -8.124)" fill="#e1a23a"/>
  </g>
</svg>
