<svg xmlns="http://www.w3.org/2000/svg" width="32" height="32" viewBox="0 0 32 32">
  <g id="subtree_s" transform="translate(13.05 14.739)">
    <g id="base" transform="translate(-11.05 -12.739)" fill="#fff" stroke-linecap="round">
      <path d="M 25.92593002319336 29 L 2.074069976806641 29 C 0.3790200054645538 29 -1 27.62097930908203 -1 25.92593002319336 L -1 2.074069976806641 C -1 0.3790200054645538 0.3790200054645538 -1 2.074069976806641 -1 L 25.92593002319336 -1 C 27.62097930908203 -1 29 0.3790200054645538 29 2.074069976806641 L 29 25.92593002319336 C 29 27.62097930908203 27.62097930908203 29 25.92593002319336 29 Z" stroke="none"/>
      <path d="M 2.074069976806641 0 C 0.9285907745361328 0 0 0.9285907745361328 0 2.074069976806641 L 0 25.92593002319336 C 0 27.0713996887207 0.9285907745361328 28 2.074069976806641 28 L 25.92593002319336 28 C 27.0713996887207 28 28 27.0713996887207 28 25.92593002319336 L 28 2.074069976806641 C 28 0.9285907745361328 27.0713996887207 0 25.92593002319336 0 L 2.074069976806641 0 M 2.074069976806641 -2 L 25.92593002319336 -2 C 28.1723804473877 -2 30 -0.1723804473876953 30 2.074069976806641 L 30 25.92593002319336 C 30 28.1723804473877 28.1723804473877 30 25.92593002319336 30 L 2.074069976806641 30 C -0.1723804473876953 30 -2 28.1723804473877 -2 25.92593002319336 L -2 2.074069976806641 C -2 -0.1723804473876953 -0.1723804473876953 -2 2.074069976806641 -2 Z" stroke="none" fill="#b36e02"/>
    </g>
    <g id="tree" transform="translate(-3.321 -6.802)">
      <path id="線_104" data-name="線 104" d="M1.75,4.2h-3.5V0h3.5Z" transform="translate(6.271 12.729)" fill="#b36e02"/>
      <path id="パス_143" data-name="パス 143" d="M1,13.541H13.541L9.958,8.167h2.687L7.271,1,1.9,8.167H4.583Z" transform="translate(-1 -1)" fill="#b36e02"/>
      <path id="パス_143_-_アウトライン" data-name="パス 143 - アウトライン" d="M13.541,14.541H1a1,1,0,0,1-.832-1.555l2.547-3.82H1.9a1,1,0,0,1-.8-1.6L6.471.4a1,1,0,0,1,1.6,0l5.375,7.167a1,1,0,0,1-.8,1.6h-.819l2.547,3.82a1,1,0,0,1-.832,1.555Zm-10.673-2h8.8L9.126,8.721a1,1,0,0,1,.832-1.555h.687l-3.375-4.5L3.9,7.167h.687a1,1,0,0,1,.832,1.555Z" transform="translate(-1 -1)" fill="#b36e02"/>
    </g>
  </g>
</svg>
